<?xml version="1.0" standalone="no"?>
<svg xmlns:xlink="http://www.w3.org/1999/xlink" id="wave" style="transform:rotate(180deg); transition: 0.3s" viewBox="0 0 1440 130" version="1.1" xmlns="http://www.w3.org/2000/svg"><defs><linearGradient id="sw-gradient-0" x1="0" x2="0" y1="1" y2="0"><stop stop-color="rgba(255, 249, 234, 1)" offset="0%"/><stop stop-color="rgba(255, 179, 11, 1)" offset="100%"/></linearGradient></defs><path style="transform:translate(0, 0px); opacity:1" fill="url(#sw-gradient-0)" d="M0,78L30,80.2C60,82,120,87,180,93.2C240,100,300,108,360,101.8C420,95,480,74,540,54.2C600,35,660,17,720,13C780,9,840,17,900,21.7C960,26,1020,26,1080,21.7C1140,17,1200,9,1260,23.8C1320,39,1380,78,1440,82.3C1500,87,1560,56,1620,52C1680,48,1740,69,1800,67.2C1860,65,1920,39,1980,39C2040,39,2100,65,2160,67.2C2220,69,2280,48,2340,47.7C2400,48,2460,69,2520,69.3C2580,69,2640,48,2700,34.7C2760,22,2820,17,2880,19.5C2940,22,3000,30,3060,32.5C3120,35,3180,30,3240,41.2C3300,52,3360,78,3420,86.7C3480,95,3540,87,3600,82.3C3660,78,3720,78,3780,65C3840,52,3900,26,3960,26C4020,26,4080,52,4140,52C4200,52,4260,26,4290,13L4320,0L4320,130L4290,130C4260,130,4200,130,4140,130C4080,130,4020,130,3960,130C3900,130,3840,130,3780,130C3720,130,3660,130,3600,130C3540,130,3480,130,3420,130C3360,130,3300,130,3240,130C3180,130,3120,130,3060,130C3000,130,2940,130,2880,130C2820,130,2760,130,2700,130C2640,130,2580,130,2520,130C2460,130,2400,130,2340,130C2280,130,2220,130,2160,130C2100,130,2040,130,1980,130C1920,130,1860,130,1800,130C1740,130,1680,130,1620,130C1560,130,1500,130,1440,130C1380,130,1320,130,1260,130C1200,130,1140,130,1080,130C1020,130,960,130,900,130C840,130,780,130,720,130C660,130,600,130,540,130C480,130,420,130,360,130C300,130,240,130,180,130C120,130,60,130,30,130L0,130Z"/></svg>