<?xml version="1.0" standalone="no"?>
<svg xmlns:xlink="http://www.w3.org/1999/xlink" id="wave" style="transform:rotate(0deg); transition: 0.3s" viewBox="0 0 1440 100" version="1.1" xmlns="http://www.w3.org/2000/svg"><defs><linearGradient id="sw-gradient-0" x1="0" x2="0" y1="1" y2="0"><stop stop-color="rgba(200.464, 183.467, 140.975, 1)" offset="0%"/><stop stop-color="rgba(221.809, 210.874, 183.536, 1)" offset="100%"/></linearGradient></defs><path style="transform:translate(0, 0px); opacity:1" fill="url(#sw-gradient-0)" d="M0,40L40,41.7C80,43,160,47,240,45C320,43,400,37,480,28.3C560,20,640,10,720,10C800,10,880,20,960,35C1040,50,1120,70,1200,73.3C1280,77,1360,63,1440,50C1520,37,1600,23,1680,16.7C1760,10,1840,10,1920,8.3C2000,7,2080,3,2160,5C2240,7,2320,13,2400,28.3C2480,43,2560,67,2640,65C2720,63,2800,37,2880,31.7C2960,27,3040,43,3120,55C3200,67,3280,73,3360,68.3C3440,63,3520,47,3600,43.3C3680,40,3760,50,3840,60C3920,70,4000,80,4080,70C4160,60,4240,30,4320,26.7C4400,23,4480,47,4560,58.3C4640,70,4720,70,4800,68.3C4880,67,4960,63,5040,65C5120,67,5200,73,5280,65C5360,57,5440,33,5520,30C5600,27,5680,43,5720,51.7L5760,60L5760,100L5720,100C5680,100,5600,100,5520,100C5440,100,5360,100,5280,100C5200,100,5120,100,5040,100C4960,100,4880,100,4800,100C4720,100,4640,100,4560,100C4480,100,4400,100,4320,100C4240,100,4160,100,4080,100C4000,100,3920,100,3840,100C3760,100,3680,100,3600,100C3520,100,3440,100,3360,100C3280,100,3200,100,3120,100C3040,100,2960,100,2880,100C2800,100,2720,100,2640,100C2560,100,2480,100,2400,100C2320,100,2240,100,2160,100C2080,100,2000,100,1920,100C1840,100,1760,100,1680,100C1600,100,1520,100,1440,100C1360,100,1280,100,1200,100C1120,100,1040,100,960,100C880,100,800,100,720,100C640,100,560,100,480,100C400,100,320,100,240,100C160,100,80,100,40,100L0,100Z"/></svg>