<?xml version="1.0" standalone="no"?>
<svg xmlns:xlink="http://www.w3.org/1999/xlink" id="wave" style="transform:rotate(180deg); transition: 0.3s" viewBox="0 0 1440 130" version="1.1" xmlns="http://www.w3.org/2000/svg"><defs><linearGradient id="sw-gradient-0" x1="0" x2="0" y1="1" y2="0"><stop stop-color="rgba(255, 249, 234, 1)" offset="0%"/><stop stop-color="rgba(221.809, 210.874, 183.536, 1)" offset="100%"/></linearGradient></defs><path style="transform:translate(0, 0px); opacity:1" fill="url(#sw-gradient-0)" d="M0,78L34.3,80.2C68.6,82,137,87,206,93.2C274.3,100,343,108,411,101.8C480,95,549,74,617,54.2C685.7,35,754,17,823,13C891.4,9,960,17,1029,21.7C1097.1,26,1166,26,1234,21.7C1302.9,17,1371,9,1440,23.8C1508.6,39,1577,78,1646,82.3C1714.3,87,1783,56,1851,52C1920,48,1989,69,2057,67.2C2125.7,65,2194,39,2263,39C2331.4,39,2400,65,2469,67.2C2537.1,69,2606,48,2674,47.7C2742.9,48,2811,69,2880,69.3C2948.6,69,3017,48,3086,34.7C3154.3,22,3223,17,3291,19.5C3360,22,3429,30,3497,32.5C3565.7,35,3634,30,3703,41.2C3771.4,52,3840,78,3909,86.7C3977.1,95,4046,87,4114,82.3C4182.9,78,4251,78,4320,65C4388.6,52,4457,26,4526,26C4594.3,26,4663,52,4731,52C4800,52,4869,26,4903,13L4937.1,0L4937.1,130L4902.9,130C4868.6,130,4800,130,4731,130C4662.9,130,4594,130,4526,130C4457.1,130,4389,130,4320,130C4251.4,130,4183,130,4114,130C4045.7,130,3977,130,3909,130C3840,130,3771,130,3703,130C3634.3,130,3566,130,3497,130C3428.6,130,3360,130,3291,130C3222.9,130,3154,130,3086,130C3017.1,130,2949,130,2880,130C2811.4,130,2743,130,2674,130C2605.7,130,2537,130,2469,130C2400,130,2331,130,2263,130C2194.3,130,2126,130,2057,130C1988.6,130,1920,130,1851,130C1782.9,130,1714,130,1646,130C1577.1,130,1509,130,1440,130C1371.4,130,1303,130,1234,130C1165.7,130,1097,130,1029,130C960,130,891,130,823,130C754.3,130,686,130,617,130C548.6,130,480,130,411,130C342.9,130,274,130,206,130C137.1,130,69,130,34,130L0,130Z"/></svg>