<?xml version="1.0" standalone="no"?>
<svg xmlns:xlink="http://www.w3.org/1999/xlink" id="wave" style="transform:rotate(180deg); transition: 0.3s" viewBox="0 0 1440 290" version="1.1" xmlns="http://www.w3.org/2000/svg"><defs><linearGradient id="sw-gradient-0" x1="0" x2="0" y1="1" y2="0"><stop stop-color="rgba(228.639, 204.09, 142.718, 1)" offset="0%"/><stop stop-color="rgba(221.809, 210.874, 183.536, 1)" offset="100%"/></linearGradient></defs><path style="transform:translate(0, 0px); opacity:1" fill="url(#sw-gradient-0)" d="M0,174L30,178.8C60,184,120,193,180,207.8C240,222,300,242,360,227.2C420,213,480,164,540,120.8C600,77,660,39,720,29C780,19,840,39,900,48.3C960,58,1020,58,1080,48.3C1140,39,1200,19,1260,53.2C1320,87,1380,174,1440,183.7C1500,193,1560,126,1620,116C1680,106,1740,155,1800,149.8C1860,145,1920,87,1980,87C2040,87,2100,145,2160,149.8C2220,155,2280,106,2340,106.3C2400,106,2460,155,2520,154.7C2580,155,2640,106,2700,77.3C2760,48,2820,39,2880,43.5C2940,48,3000,68,3060,72.5C3120,77,3180,68,3240,91.8C3300,116,3360,174,3420,193.3C3480,213,3540,193,3600,183.7C3660,174,3720,174,3780,145C3840,116,3900,58,3960,58C4020,58,4080,116,4140,116C4200,116,4260,58,4290,29L4320,0L4320,290L4290,290C4260,290,4200,290,4140,290C4080,290,4020,290,3960,290C3900,290,3840,290,3780,290C3720,290,3660,290,3600,290C3540,290,3480,290,3420,290C3360,290,3300,290,3240,290C3180,290,3120,290,3060,290C3000,290,2940,290,2880,290C2820,290,2760,290,2700,290C2640,290,2580,290,2520,290C2460,290,2400,290,2340,290C2280,290,2220,290,2160,290C2100,290,2040,290,1980,290C1920,290,1860,290,1800,290C1740,290,1680,290,1620,290C1560,290,1500,290,1440,290C1380,290,1320,290,1260,290C1200,290,1140,290,1080,290C1020,290,960,290,900,290C840,290,780,290,720,290C660,290,600,290,540,290C480,290,420,290,360,290C300,290,240,290,180,290C120,290,60,290,30,290L0,290Z"/></svg>